<svg id="Capa_1" enable-background="new 0 0 512 512" height="512" viewBox="0 0 512 512" width="512" xmlns="http://www.w3.org/2000/svg"><g><path d="m242.716 425.297c-5.394 5.394-8.365 12.566-8.365 20.194s2.97 14.8 8.365 20.193c5.394 5.395 12.566 8.366 20.194 8.366s14.8-2.971 20.194-8.365 8.365-12.566 8.365-20.194-2.97-14.8-8.365-20.194c0-.001 0-.001 0-.001-11.135-11.133-29.253-11.134-40.388.001zm29.795 29.794c-2.565 2.564-5.974 3.977-9.601 3.977-3.626 0-7.036-1.412-9.601-3.978-2.564-2.564-3.977-5.973-3.977-9.6 0-3.626 1.412-7.036 3.977-9.601 2.647-2.647 6.124-3.971 9.601-3.971s6.954 1.324 9.601 3.971c2.564 2.564 3.977 5.974 3.977 9.601-.001 3.627-1.413 7.036-3.977 9.601z"/><path d="m505.429 212.661-119.766-119.765c-4.245-4.245-9.888-6.583-15.891-6.583-6.002 0-11.646 2.338-15.89 6.582l-24.477 24.477c-1.07-2.249-2.51-4.365-4.37-6.225l-104.518-104.517c-8.763-8.761-23.019-8.761-31.781 0l-35.131 35.132c-2.926 2.926-2.926 7.668 0 10.594 2.925 2.924 7.668 2.924 10.593 0l2.186-2.186 89.046 89.046-54.745 54.744-89.045-89.047 27.709-27.709c2.926-2.926 2.926-7.668 0-10.594-2.925-2.924-7.668-2.924-10.593 0l-51.716 51.717c-8.761 8.762-8.761 23.019 0 31.781l34.998 34.998c-6.908-1.057-14.02-1.189-21.177-.326l-66.674 8.502c-7.285.876-13.792 4.537-18.322 10.309-4.53 5.771-6.541 12.961-5.664 20.246 1.812 15.035 15.52 25.801 30.606 23.977l66.676-8.502c6.893-.835 13.667 1.509 18.578 6.421l134.467 134.468c-12.695 2.388-24.824 8.477-34.627 18.28-8.612 8.612-14.685 19.386-17.564 31.162-.983 4.019 1.478 8.073 5.497 9.055 4.013.979 8.073-1.479 9.055-5.497 2.228-9.111 6.932-17.454 13.605-24.126 20.08-20.081 52.752-20.081 72.832 0 20.079 20.079 20.079 52.752 0 72.831-20.08 20.08-52.753 20.079-72.831.001-5.178-5.179-9.115-11.241-11.701-18.018-1.475-3.865-5.805-5.804-9.669-4.328-3.865 1.475-5.803 5.803-4.328 9.669 3.343 8.761 8.425 16.59 15.105 23.27 12.961 12.96 29.985 19.44 47.009 19.44s34.049-6.48 47.009-19.44c15.549-15.549 21.759-36.946 18.654-57.176 3.261.414 6.527.63 9.782.63 20.267 0 40.045-7.939 54.749-22.644l76.826-76.826c10.709-10.71 10.709-28.134 0-38.844-3.129-3.129-6.883-5.404-10.978-6.721l46.477-46.477c8.76-8.762 8.76-23.019-.001-31.781zm-38.051-16.863-110.484 110.484-54.745-54.745 110.484-110.483zm-379.745-66.878 13.413-13.413 89.399 89.399c2.823 2.823 6.532 4.234 10.24 4.234 3.709 0 7.418-1.411 10.241-4.234l55.452-55.452c5.645-5.647 5.645-14.834-.001-20.481l-89.398-89.398 22.351-22.352c2.921-2.921 7.674-2.92 10.594 0l104.517 104.517c2.921 2.921 2.921 7.674 0 10.594l-111.696 111.697c-2.92 2.922-7.673 2.921-10.594 0l-104.517-104.516c-2.921-2.921-2.921-7.674-.001-10.595zm371.704 196.97-76.826 76.826c-15.325 15.325-37.489 21.528-58.516 16.58-3.232-7.564-7.912-14.652-14.075-20.815-10.891-10.89-24.653-17.187-38.872-18.926-.069-.075-.133-.154-.206-.228l-144.188-144.188c-8.185-8.185-19.47-12.082-31.016-10.694l-66.675 8.502c-6.838.82-13.065-4.068-13.888-10.902-.399-3.311.515-6.58 2.575-9.204 2.059-2.623 5.016-4.287 8.379-4.692l66.675-8.502c19.155-2.311 37.962 4.193 51.605 17.836l167.577 167.577c14.604 14.601 38.365 14.601 52.968 0l76.826-76.826c4.868-4.869 12.788-4.869 17.656 0 4.868 4.868 4.868 12.789.001 17.656zm35.498-92.041-126.529 126.528c-1.415 1.414-3.296 2.194-5.296 2.194-2.001 0-3.882-.779-5.297-2.195l-84.242-84.242c-2.925-2.924-7.668-2.924-10.593 0-2.926 2.926-2.926 7.668 0 10.594l84.242 84.241c1.827 1.827 3.923 3.276 6.185 4.362-8.813 7.86-22.369 7.59-30.823-.865l-115.439-115.437c2.276-1.073 4.417-2.524 6.296-4.403l9.638-9.638c1.087 2.274 2.542 4.381 4.377 6.216l12.942 12.942c2.925 2.925 7.668 2.926 10.593.001 2.926-2.925 2.926-7.668 0-10.593l-12.942-12.943c-1.415-1.414-2.194-3.295-2.194-5.296 0-1.999.778-3.878 2.19-5.292l126.532-126.533c1.415-1.414 3.296-2.194 5.296-2.194 2.001 0 3.882.779 5.297 2.195l26.971 26.971-110.836 110.835c-5.647 5.647-5.647 14.834 0 20.482l55.45 55.45c2.735 2.736 6.373 4.243 10.241 4.243s7.505-1.507 10.24-4.242l110.837-110.837 16.862 16.862c2.922 2.92 2.922 7.673.002 10.594z"/><path d="m185.641 159.646c1.463 1.462 3.38 2.194 5.297 2.194s3.834-.732 5.297-2.194l26.312-26.312c2.926-2.926 2.926-7.668 0-10.594-2.925-2.924-7.668-2.924-10.593 0l-26.312 26.313c-2.927 2.924-2.927 7.666-.001 10.593z"/><path d="m184.177 94.963-26.312 26.312c-2.926 2.926-2.926 7.668 0 10.594 1.463 1.462 3.38 2.194 5.297 2.194s3.834-.732 5.297-2.194l26.312-26.312c2.926-2.926 2.926-7.668 0-10.594-2.926-2.924-7.669-2.924-10.594 0z"/><path d="m167.109 77.895-26.312 26.313c-2.926 2.926-2.926 7.668 0 10.594 1.463 1.462 3.38 2.194 5.297 2.194s3.834-.732 5.297-2.194l26.312-26.313c2.926-2.926 2.926-7.668 0-10.594-2.925-2.924-7.668-2.924-10.594 0z"/><path d="m329.379 254.172 26.312 26.312c1.463 1.462 3.38 2.194 5.297 2.194s3.834-.732 5.297-2.194c2.926-2.926 2.926-7.668 0-10.594l-26.312-26.312c-2.925-2.924-7.668-2.924-10.593 0-2.927 2.926-2.927 7.668-.001 10.594z"/><path d="m383.193 252.981c1.463 1.462 3.38 2.194 5.297 2.194s3.834-.732 5.297-2.194c2.926-2.926 2.926-7.668 0-10.594l-26.312-26.312c-2.925-2.924-7.668-2.924-10.593 0-2.926 2.926-2.926 7.668 0 10.594z"/><path d="m410.969 225.206c1.463 1.462 3.38 2.194 5.297 2.194s3.834-.732 5.297-2.194c2.926-2.926 2.926-7.668 0-10.594l-26.312-26.312c-2.925-2.924-7.668-2.924-10.593 0-2.926 2.926-2.926 7.668 0 10.594z"/><path d="m428.037 208.138c1.463 1.462 3.38 2.194 5.297 2.194s3.834-.732 5.297-2.194c2.926-2.926 2.926-7.668 0-10.594l-26.312-26.312c-2.925-2.924-7.668-2.924-10.593 0-2.926 2.926-2.926 7.668 0 10.594z"/></g></svg>